<svg width="50" height="50" viewBox="0 0 50 50" fill="none" xmlns="http://www.w3.org/2000/svg">
<path d="M25.5084 8.33331C26.6209 8.33956 29.4042 8.36665 32.3625 8.4854L33.4125 8.53123C36.3896 8.67081 39.3646 8.91248 40.8417 9.3229C42.8104 9.87706 44.3563 11.4896 44.8792 13.5354C45.7125 16.7854 45.8167 23.1229 45.8292 24.6583L45.8313 24.975V25.3375C45.8167 26.8729 45.7125 33.2125 44.8792 36.4604C44.35 38.5125 42.8021 40.1271 40.8417 40.6729C39.3646 41.0833 36.3896 41.325 33.4125 41.4646L32.3625 41.5125C29.4042 41.6291 26.6209 41.6583 25.5084 41.6625L25.0188 41.6646H24.4875C22.1334 41.65 12.2875 41.5437 9.15419 40.6729C7.18752 40.1187 5.6396 38.5062 5.11669 36.4604C4.28335 33.2104 4.17919 26.8729 4.16669 25.3375V24.6583C4.17919 23.1229 4.28335 16.7833 5.11669 13.5354C5.64585 11.4833 7.19377 9.86873 9.15627 9.32498C12.2875 8.45206 22.1354 8.34581 24.4896 8.33331H25.5084Z" fill="#FF0000"/>
<path d="M24.0731 19.0532H19.7922C19.7619 18.6984 19.6809 18.3764 19.5493 18.0875C19.4228 17.7985 19.2457 17.5501 19.018 17.3422C18.7954 17.1293 18.5247 16.967 18.2059 16.8555C17.8871 16.7389 17.5253 16.6806 17.1205 16.6806C16.4121 16.6806 15.8125 16.853 15.3216 17.1977C14.8359 17.5425 14.4665 18.0368 14.2135 18.6806C13.9655 19.3245 13.8416 20.0976 13.8416 21C13.8416 21.9531 13.9681 22.7516 14.2211 23.3954C14.4791 24.0342 14.851 24.5158 15.3368 24.8403C15.8226 25.1597 16.407 25.3194 17.0901 25.3194C17.4798 25.3194 17.8289 25.2712 18.1376 25.1749C18.4462 25.0735 18.7144 24.929 18.9421 24.7414C19.1698 24.5539 19.3545 24.3283 19.4962 24.0646C19.6429 23.7959 19.7416 23.4943 19.7922 23.1597L24.0731 23.1901C24.0225 23.8492 23.8378 24.5209 23.519 25.2053C23.2002 25.8847 22.7473 26.5133 22.1603 27.0913C21.5784 27.6641 20.8574 28.1255 19.9972 28.4753C19.1369 28.8251 18.1376 29 16.9991 29C15.5721 29 14.2919 28.6933 13.1584 28.0798C12.03 27.4664 11.1369 26.564 10.4791 25.3726C9.82638 24.1812 9.5 22.7237 9.5 21C9.5 19.2662 9.83397 17.8061 10.5019 16.6198C11.1698 15.4284 12.0705 14.5285 13.204 13.9202C14.3374 13.3067 15.6025 13 16.9991 13C17.9807 13 18.8839 13.1343 19.7087 13.403C20.5335 13.6717 21.2571 14.0646 21.8795 14.5817C22.5019 15.0938 23.0028 15.725 23.3824 16.4753C23.7619 17.2256 23.9921 18.0849 24.0731 19.0532Z" fill="white"/>
<path d="M40.5 19.0532H36.2192C36.1888 18.6984 36.1078 18.3764 35.9763 18.0875C35.8498 17.7985 35.6727 17.5501 35.445 17.3422C35.2223 17.1293 34.9516 16.967 34.6328 16.8555C34.314 16.7389 33.9522 16.6806 33.5474 16.6806C32.839 16.6806 32.2394 16.853 31.7486 17.1977C31.2628 17.5425 30.8934 18.0368 30.6404 18.6806C30.3925 19.3245 30.2685 20.0976 30.2685 21C30.2685 21.9531 30.395 22.7516 30.648 23.3954C30.9061 24.0342 31.278 24.5158 31.7638 24.8403C32.2495 25.1597 32.834 25.3194 33.5171 25.3194C33.9067 25.3194 34.2559 25.2712 34.5645 25.1749C34.8732 25.0735 35.1414 24.929 35.3691 24.7414C35.5968 24.5539 35.7815 24.3283 35.9231 24.0646C36.0699 23.7959 36.1686 23.4943 36.2192 23.1597L40.5 23.1901C40.4494 23.8492 40.2647 24.5209 39.9459 25.2053C39.6271 25.8847 39.1743 26.5133 38.5873 27.0913C38.0054 27.6641 37.2843 28.1255 36.4241 28.4753C35.5639 28.8251 34.5645 29 33.426 29C31.999 29 30.7188 28.6933 29.5854 28.0798C28.457 27.4664 27.5639 26.564 26.9061 25.3726C26.2533 24.1812 25.9269 22.7237 25.9269 21C25.9269 19.2662 26.2609 17.8061 26.9288 16.6198C27.5968 15.4284 28.4975 14.5285 29.6309 13.9202C30.7644 13.3067 32.0294 13 33.426 13C34.4077 13 35.3109 13.1343 36.1357 13.403C36.9605 13.6717 37.6841 14.0646 38.3064 14.5817C38.9288 15.0938 39.4298 15.725 39.8093 16.4753C40.1888 17.2256 40.419 18.0849 40.5 19.0532Z" fill="white"/>
<path d="M9.82812 36V30.9091H13.4972V32.0227H11.2102V32.8977H13.3082V34.0114H11.2102V34.8864H13.4872V36H9.82812Z" fill="white"/>
<path d="M15.3857 32.1818L15.9426 33.3651L16.5292 32.1818H17.8914L16.8673 34.0909L17.9411 36H16.5889L15.9426 34.7869L15.3161 36H13.944L15.0278 34.0909L14.0136 32.1818H15.3857Z" fill="white"/>
<path d="M20.6562 32.1818V33.1761H18.1406V32.1818H20.6562ZM18.6278 31.267H20V34.772C20 34.825 20.0091 34.8698 20.0273 34.9062C20.0456 34.9411 20.0737 34.9676 20.1119 34.9858C20.15 35.0024 20.1989 35.0107 20.2585 35.0107C20.3 35.0107 20.348 35.0057 20.4027 34.9957C20.459 34.9858 20.5005 34.9775 20.527 34.9709L20.7259 35.9354C20.6645 35.9536 20.5767 35.976 20.4624 36.0025C20.3497 36.029 20.2154 36.0464 20.0597 36.0547C19.7448 36.0713 19.4805 36.0389 19.2667 35.9577C19.0529 35.8749 18.8922 35.7448 18.7844 35.5675C18.6767 35.3902 18.6245 35.1681 18.6278 34.9013V31.267Z" fill="white"/>
<path d="M21.2162 36V32.1818H22.5486V32.9077H22.5883C22.6579 32.6392 22.7681 32.4428 22.9189 32.3185C23.0714 32.1942 23.2496 32.1321 23.4534 32.1321C23.5131 32.1321 23.5719 32.1371 23.6299 32.147C23.6895 32.1553 23.7467 32.1677 23.8014 32.1843V33.3551C23.7335 33.3319 23.6498 33.3145 23.5503 33.3029C23.4509 33.2913 23.3656 33.2855 23.2943 33.2855C23.1601 33.2855 23.0391 33.3162 22.9314 33.3775C22.8253 33.4371 22.7416 33.5217 22.6803 33.631C22.619 33.7388 22.5883 33.8655 22.5883 34.0114V36H21.2162Z" fill="white"/>
<path d="M25.1375 36.0597C24.8939 36.0597 24.6785 36.0199 24.4912 35.9403C24.3056 35.8591 24.1598 35.7365 24.0537 35.5724C23.9477 35.4084 23.8946 35.1996 23.8946 34.946C23.8946 34.7372 23.9303 34.5591 24.0015 34.4116C24.0728 34.2624 24.1722 34.1406 24.2998 34.0462C24.4274 33.9517 24.5757 33.8796 24.7448 33.8299C24.9155 33.7802 25.0994 33.7479 25.2966 33.733C25.5104 33.7164 25.6819 33.6965 25.8112 33.6733C25.9421 33.6484 26.0365 33.6145 26.0945 33.5714C26.1526 33.5266 26.1816 33.4678 26.1816 33.3949V33.3849C26.1816 33.2855 26.1434 33.2093 26.0672 33.1562C25.991 33.1032 25.8932 33.0767 25.7739 33.0767C25.643 33.0767 25.5361 33.1057 25.4532 33.1637C25.372 33.2201 25.3231 33.3071 25.3066 33.4247H24.0438C24.0603 33.1927 24.1341 32.9789 24.265 32.7834C24.3976 32.5862 24.5906 32.4287 24.8442 32.3111C25.0977 32.1918 25.4143 32.1321 25.7938 32.1321C26.0672 32.1321 26.3125 32.1644 26.5296 32.229C26.7467 32.292 26.9314 32.3807 27.0839 32.495C27.2364 32.6077 27.3524 32.7403 27.4319 32.8928C27.5131 33.0436 27.5537 33.2076 27.5537 33.3849V36H26.271V35.4631H26.2412C26.165 35.6056 26.0722 35.7208 25.9628 35.8086C25.8551 35.8964 25.7316 35.9602 25.5924 36C25.4549 36.0398 25.3032 36.0597 25.1375 36.0597ZM25.585 35.1946C25.6894 35.1946 25.7871 35.1731 25.8783 35.13C25.9711 35.0869 26.0465 35.0247 26.1045 34.9435C26.1625 34.8623 26.1915 34.7637 26.1915 34.6477V34.3295C26.155 34.3445 26.1161 34.3585 26.0747 34.3718C26.0349 34.3851 25.9918 34.3975 25.9454 34.4091C25.9007 34.4207 25.8526 34.4315 25.8012 34.4414C25.7515 34.4513 25.6993 34.4605 25.6446 34.4688C25.5386 34.4853 25.4516 34.5127 25.3836 34.5508C25.3173 34.5872 25.2676 34.6328 25.2345 34.6875C25.203 34.7405 25.1872 34.8002 25.1872 34.8665C25.1872 34.9725 25.2245 35.0537 25.2991 35.1101C25.3737 35.1664 25.469 35.1946 25.585 35.1946Z" fill="white"/>
<path d="M30.0488 36.0696C29.6345 36.0696 29.2799 35.9876 28.9849 35.8235C28.6899 35.6578 28.4637 35.4274 28.3063 35.1325C28.1489 34.8358 28.0701 34.492 28.0701 34.1009C28.0701 33.7098 28.1489 33.3667 28.3063 33.0717C28.4637 32.7751 28.6899 32.5447 28.9849 32.3807C29.2799 32.215 29.6345 32.1321 30.0488 32.1321C30.4234 32.1321 30.7473 32.2 31.0208 32.3359C31.2959 32.4702 31.5088 32.6607 31.6596 32.9077C31.8104 33.1529 31.8867 33.4413 31.8883 33.7727H30.6156C30.5974 33.5722 30.5394 33.4197 30.4416 33.3153C30.3455 33.2093 30.2212 33.1562 30.0687 33.1562C29.9494 33.1562 29.845 33.1911 29.7555 33.2607C29.666 33.3286 29.5964 33.4322 29.5467 33.5714C29.497 33.7089 29.4721 33.8821 29.4721 34.0909C29.4721 34.2997 29.497 34.4737 29.5467 34.6129C29.5964 34.7505 29.666 34.854 29.7555 34.9237C29.845 34.9916 29.9494 35.0256 30.0687 35.0256C30.1698 35.0256 30.2593 35.0024 30.3372 34.956C30.4151 34.9079 30.478 34.8383 30.5261 34.7472C30.5758 34.6544 30.6056 34.5417 30.6156 34.4091H31.8883C31.8833 34.7455 31.8063 35.0388 31.6571 35.2891C31.508 35.5376 31.2967 35.7299 31.0233 35.8658C30.7515 36.0017 30.4267 36.0696 30.0488 36.0696Z" fill="white"/>
<path d="M34.7314 32.1818V33.1761H32.2158V32.1818H34.7314ZM32.703 31.267H34.0752V34.772C34.0752 34.825 34.0843 34.8698 34.1025 34.9062C34.1208 34.9411 34.1489 34.9676 34.1871 34.9858C34.2252 35.0024 34.2741 35.0107 34.3337 35.0107C34.3751 35.0107 34.4232 35.0057 34.4779 34.9957C34.5342 34.9858 34.5757 34.9775 34.6022 34.9709L34.801 35.9354C34.7397 35.9536 34.6519 35.976 34.5376 36.0025C34.4249 36.029 34.2906 36.0464 34.1349 36.0547C33.82 36.0713 33.5557 36.0389 33.3419 35.9577C33.1281 35.8749 32.9674 35.7448 32.8596 35.5675C32.7519 35.3902 32.6997 35.1681 32.703 34.9013V31.267Z" fill="white"/>
<path d="M37.0898 36.0696C36.6755 36.0696 36.3209 35.9876 36.0259 35.8235C35.7309 35.6578 35.5047 35.4274 35.3473 35.1325C35.1899 34.8358 35.1112 34.492 35.1112 34.1009C35.1112 33.7098 35.1899 33.3667 35.3473 33.0717C35.5047 32.7751 35.7309 32.5447 36.0259 32.3807C36.3209 32.215 36.6755 32.1321 37.0898 32.1321C37.5041 32.1321 37.8588 32.215 38.1538 32.3807C38.4487 32.5447 38.675 32.7751 38.8324 33.0717C38.9898 33.3667 39.0685 33.7098 39.0685 34.1009C39.0685 34.492 38.9898 34.8358 38.8324 35.1325C38.675 35.4274 38.4487 35.6578 38.1538 35.8235C37.8588 35.9876 37.5041 36.0696 37.0898 36.0696ZM37.0998 35.0554C37.2158 35.0554 37.3161 35.0165 37.4006 34.9386C37.4851 34.8607 37.5505 34.7496 37.5969 34.6055C37.6433 34.4613 37.6665 34.2898 37.6665 34.0909C37.6665 33.8904 37.6433 33.7189 37.5969 33.5763C37.5505 33.4322 37.4851 33.3211 37.4006 33.2433C37.3161 33.1654 37.2158 33.1264 37.0998 33.1264C36.9772 33.1264 36.8719 33.1654 36.7841 33.2433C36.6963 33.3211 36.6291 33.4322 36.5827 33.5763C36.5363 33.7189 36.5131 33.8904 36.5131 34.0909C36.5131 34.2898 36.5363 34.4613 36.5827 34.6055C36.6291 34.7496 36.6963 34.8607 36.7841 34.9386C36.8719 35.0165 36.9772 35.0554 37.0998 35.0554Z" fill="white"/>
<path d="M39.6254 36V32.1818H40.9577V32.9077H40.9975C41.0671 32.6392 41.1773 32.4428 41.3281 32.3185C41.4806 32.1942 41.6587 32.1321 41.8626 32.1321C41.9222 32.1321 41.9811 32.1371 42.0391 32.147C42.0987 32.1553 42.1559 32.1677 42.2106 32.1843V33.3551C42.1426 33.3319 42.059 33.3145 41.9595 33.3029C41.8601 33.2913 41.7747 33.2855 41.7035 33.2855C41.5692 33.2855 41.4483 33.3162 41.3406 33.3775C41.2345 33.4371 41.1508 33.5217 41.0895 33.631C41.0282 33.7388 40.9975 33.8655 40.9975 34.0114V36H39.6254Z" fill="white"/>
</svg>
