<svg width="32" height="32" viewBox="0 0 32 32" fill="none" xmlns="http://www.w3.org/2000/svg">
<mask id="mask0_6_19" style="mask-type:alpha" maskUnits="userSpaceOnUse" x="0" y="0" width="32" height="32">
<path fill-rule="evenodd" clip-rule="evenodd" d="M16 32C24.8366 32 32 24.8366 32 16C32 7.16344 24.8366 0 16 0C7.16344 0 0 7.16344 0 16C0 24.8366 7.16344 32 16 32ZM16 28C22.6274 28 28 22.6274 28 16C28 9.37258 22.6274 4 16 4C9.37258 4 4 9.37258 4 16C4 22.6274 9.37258 28 16 28Z" fill="#FF0000"/>
</mask>
<g mask="url(#mask0_6_19)">
<path fill-rule="evenodd" clip-rule="evenodd" d="M16 32C24.8366 32 32 24.8366 32 16C32 7.16344 24.8366 0 16 0C7.16344 0 0 7.16344 0 16C0 24.8366 7.16344 32 16 32ZM16 28C22.6274 28 28 22.6274 28 16C28 9.37258 22.6274 4 16 4C9.37258 4 4 9.37258 4 16C4 22.6274 9.37258 28 16 28Z" fill="#E5E7EB"/>
<path d="M14.2 -3H34.2V17.5H24.2H14.2V-3Z" fill="#2563EB"/>
<path d="M16.9231 2.07842C16.9231 3.29344 15.9381 4.27842 14.7231 4.27842C13.508 4.27842 12.5231 3.29344 12.5231 2.07842C12.5231 0.863389 13.508 -0.121584 14.7231 -0.121584C15.9381 -0.121584 16.9231 0.863389 16.9231 2.07842Z" fill="#2563EB"/>
<path d="M32.2 17.6879C32.2 18.9029 31.215 19.8879 30 19.8879C28.785 19.8879 27.8 18.9029 27.8 17.6879C27.8 16.4729 28.785 15.4879 30 15.4879C31.215 15.4879 32.2 16.4729 32.2 17.6879Z" fill="#2563EB"/>
<path d="M16.9231 2.07842C16.9231 3.29344 15.9381 4.27842 14.7231 4.27842C13.508 4.27842 12.5231 3.29344 12.5231 2.07842C12.5231 0.863391 13.508 -0.121582 14.7231 -0.121582C15.9381 -0.121582 16.9231 0.863391 16.9231 2.07842Z" fill="#2563EB"/>
</g>
</svg>
